<?xml version="1.0" encoding="UTF-8"?>
<svg id="Layer_1" data-name="Layer 1" xmlns="http://www.w3.org/2000/svg" viewBox="0 0 18 20">
  <defs>
    <style>
      .cls-1 {
        fill: #2cb34a;
      }
    </style>
  </defs>
  <path class="cls-1" d="m2.83,8.33c.02,2,.9,3.9,2.42,5.2l1.08,3.51v1.28c0,.92.75,1.67,1.67,1.67h2c.92,0,1.67-.75,1.67-1.67v-1.28l1.08-3.51c1.52-1.3,2.4-3.2,2.42-5.2,0-3.28-2.59-5.67-6.17-5.67s-6.17,2.38-6.17,5.67h0Zm8.17,9.67h-4v-.67h4v.67Zm-1,1.33h-2c-.42,0-.8-.27-.94-.67h3.89c-.14.4-.52.67-.94.67Zm1.09-2.67h-4.17l-.76-2.48c1.75,1.08,3.95,1.08,5.7,0l-.76,2.48Zm-2.77-6.43l.49.35c.12.08.27.08.39,0l.49-.36s-.02.07-.02.1v3.95c-.44.07-.89.07-1.33,0v-3.95s0-.06-.02-.09Zm.69-6.91c3.19,0,5.5,2.1,5.5,5,0,2.7-1.83,5.11-4.17,5.8v-3.72l.25.18c.12.08.27.08.39,0l.89-.64c.1-.07.15-.19.14-.31-.01-.12-.09-.22-.2-.27-.11-.05-.24-.03-.34.04l-.7.5-.7-.5c-.12-.08-.27-.08-.39,0l-.69.5-.69-.5c-.12-.08-.27-.08-.39,0l-.69.5-.69-.5c-.15-.11-.36-.07-.47.08-.11.15-.07.36.08.47l.89.64c.12.08.27.08.39,0l.25-.18v3.72c-2.33-.69-4.17-3.1-4.17-5.8,0-2.9,2.31-5,5.5-5h0Z"/>
  <path class="cls-1" d="m4.34,9.74c.03.15.17.26.33.26.02,0,.05,0,.07,0,.09-.02.16-.07.21-.15.05-.07.06-.17.04-.25-.32-1.23-.06-2.54.71-3.55.72-.89,1.81-1.39,2.96-1.38.18,0,.33-.15.33-.33s-.15-.33-.33-.33c-1.35-.02-2.63.58-3.48,1.63-.9,1.17-1.21,2.68-.85,4.11Z"/>
  <path class="cls-1" d="m9.67,4.67h.33c.18,0,.33-.15.33-.33s-.15-.33-.33-.33h-.33c-.18,0-.33.15-.33.33s.15.33.33.33Z"/>
  <path class="cls-1" d="m9.33,1.67V.33c0-.18-.15-.33-.33-.33s-.33.15-.33.33v1.33c0,.18.15.33.33.33s.33-.15.33-.33Z"/>
  <path class="cls-1" d="m14.1,15.1c-.13.13-.13.34,0,.47l1,1c.13.13.34.12.47,0,.13-.13.13-.34,0-.47l-1-1c-.13-.13-.34-.13-.47,0h0Z"/>
  <path class="cls-1" d="m1.57,2.1c-.13-.13-.34-.12-.47,0-.13.13-.13.34,0,.47l1,1c.13.13.34.12.47,0s.13-.34,0-.47l-1-1Z"/>
  <path class="cls-1" d="m2.43,16.57c.13.13.34.13.47,0l1-1c.13-.13.12-.34,0-.47-.13-.13-.34-.13-.47,0l-1,1c-.13.13-.13.34,0,.47h0Z"/>
  <path class="cls-1" d="m2,9.67H.33c-.18,0-.33.15-.33.33s.15.33.33.33h1.67c.18,0,.33-.15.33-.33s-.15-.33-.33-.33Z"/>
  <path class="cls-1" d="m16.43,2.1l-1,1c-.09.08-.12.21-.09.32.03.12.12.21.24.24.12.03.24,0,.32-.09l1-1c.13-.13.12-.34,0-.47-.13-.13-.34-.13-.47,0Z"/>
  <path class="cls-1" d="m15.67,10c0,.18.15.33.33.33h1.67c.18,0,.33-.15.33-.33s-.15-.33-.33-.33h-1.67c-.18,0-.33.15-.33.33Z"/>
</svg>